<svg xmlns="http://www.w3.org/2000/svg" width="24" height="24" viewBox="0 0 80 80">
    <!-- https://icon-sets.iconify.design/?query=group&search-page=5 -->
    <g fill="none">
        <path fill="currentColor" fill-opacity="0.25"
            d="M40.788 16.338a2 2 0 0 0-1.576 0L16.29 26.162c-1.616.692-1.616 2.984 0 3.676l22.923 9.824a2 2 0 0 0 1.576 0l22.923-9.824c1.616-.692 1.616-2.984 0-3.676z" />
        <path fill="currentColor" fill-opacity="0.25"
            d="m24.199 33.772l-7.91 3.39c-1.616.692-1.616 2.984 0 3.676l22.923 9.824a2 2 0 0 0 1.576 0l22.923-9.824c1.616-.692 1.616-2.984 0-3.676l-7.91-3.39l-14.816 6.35a2.5 2.5 0 0 1-1.97 0z" />
        <path fill="currentColor" fill-opacity="0.25"
            d="m24.199 44.772l-7.91 3.39c-1.616.692-1.616 2.984 0 3.676l22.923 9.824a2 2 0 0 0 1.576 0l22.923-9.824c1.616-.692 1.616-2.984 0-3.676l-7.91-3.39l-14.816 6.35a2.5 2.5 0 0 1-1.97 0z" />
        <path stroke="currentColor" stroke-linecap="round" stroke-linejoin="round"
            d="M40.788 16.338a2 2 0 0 0-1.576 0L16.29 26.162c-1.616.692-1.616 2.984 0 3.676l22.923 9.824a2 2 0 0 0 1.576 0l22.923-9.824c1.616-.692 1.616-2.984 0-3.676z"
            stroke-width="1" />
        <path stroke="currentColor" stroke-linecap="round" stroke-linejoin="round"
            d="m24.199 33.772l-7.91 3.39c-1.616.692-1.616 2.984 0 3.676l22.923 9.824a2 2 0 0 0 1.576 0l22.923-9.824c1.616-.692 1.616-2.984 0-3.676l-7.91-3.39l-14.816 6.35a2.5 2.5 0 0 1-1.97 0z"
            stroke-width="1" />
        <path stroke="currentColor" stroke-linecap="round" stroke-linejoin="round"
            d="m24.199 44.772l-7.91 3.39c-1.616.692-1.616 2.984 0 3.676l22.923 9.824a2 2 0 0 0 1.576 0l22.923-9.824c1.616-.692 1.616-2.984 0-3.676l-7.91-3.39l-14.816 6.35a2.5 2.5 0 0 1-1.97 0z"
            stroke-width="1" />
    </g>
</svg>
