<?xml version="1.0" encoding="UTF-8"?>
<svg id="Layer_2" data-name="Layer 2" xmlns="http://www.w3.org/2000/svg" viewBox="0 0 24 24">
  <defs>
    <style>
      .cls-1, .cls-2 {
        fill: none;
        stroke: #999;
        stroke-miterlimit: 10;
      }

      .cls-2 {
        stroke-width: 1.5px;
      }

      .cls-3 {
        fill: #999;
      }

      .cls-4 {
        fill: #b3b3b3;
      }
    </style>
  </defs>
  <g id="Renders">
    <rect class="cls-4" width="24" height="24"/>
    <g id="thumb">
      <rect class="cls-2" x="2.48" y="7.42" width="19.04" height="9.16" rx="1.62" ry="1.62"/>
      <path class="cls-3" d="M4.4,12.48l2.56,1.48c.37.21.83-.05.83-.48v-2.95c0-.43-.46-.69-.83-.48l-2.56,1.48c-.37.21-.37.75,0,.96Z"/>
      <path class="cls-3" d="M19.48,11.52l-2.56-1.48c-.37-.21-.83.05-.83.48v2.95c0,.43.46.69.83.48l2.56-1.48c.37-.21.37-.75,0-.96Z"/>
      <line class="cls-1" x1="9.6" y1="7.42" x2="9.6" y2="16.58"/>
      <line class="cls-1" x1="14.33" y1="7.42" x2="14.33" y2="16.58"/>
      <rect x="10.63" y="11" width="2.68" height="2.74" rx=".69" ry=".69"/>
    </g>
  </g>
</svg>