<?xml version="1.0" encoding="UTF-8"?>
<svg id="Layer_2" data-name="Layer 2" xmlns="http://www.w3.org/2000/svg" viewBox="0 0 24 24">
  <defs>
    <style>
      .cls-1 {
        fill: #48eeff;
      }

      .cls-1, .cls-2 {
        stroke: #231f20;
      }

      .cls-1, .cls-2, .cls-3 {
        stroke-miterlimit: 6;
        stroke-width: .6px;
      }

      .cls-2 {
        fill: #fff;
      }

      .cls-3 {
        fill: none;
        stroke: #fff;
        stroke-linecap: round;
      }

      .cls-4 {
        fill: #b3b3b3;
      }
    </style>
  </defs>
  <g id="Renders">
    <rect class="cls-4" width="24" height="24"/>
    <g>
      <path class="cls-1" d="M21.8,4.23c-.85-1.45-6.51-1.65-9.8-1.65s-8.95.18-9.8,1.65c-.85.72-.94,4.57-.94,7.77s.08,7.04.94,7.77c.85,1.45,6.51,1.65,9.8,1.65s8.95-.18,9.8-1.65c.85-.72.94-4.57.94-7.77s-.08-7.04-.94-7.77Z"/>
      <path class="cls-2" d="M19.35,8.82c-.64-.84-4.88-.85-7.35-.85s-6.71,0-7.35.85c-.64.42-.7,2.66-.7,4.52s.06,4.1.7,4.52c.64.84,4.88.85,7.35.85s6.71,0,7.35-.85c.64-.42.7-2.67.7-4.52s-.06-4.1-.7-4.52ZM3.94,5.62c0,.56.45,1.01,1.01,1.01s1.01-.45,1.01-1.01h0c0-.56-.45-1.01-1.01-1.01-.56,0-1.01.45-1.01,1.01ZM7.3,5.62c0,.56.45,1.01,1.01,1.01s1.01-.45,1.01-1.01h0c0-.56-.45-1.01-1.01-1.01-.56,0-1.01.45-1.01,1.01Z"/>
      <path class="cls-3" d="M19.36,4.54c1.45.34,1.45.58,1.58,1.4"/>
    </g>
  </g>
</svg>